<?xml version="1.0" standalone="no"?>
<!DOCTYPE svg PUBLIC "-//W3C//DTD SVG 20010904//EN"
 "http://www.w3.org/TR/2001/REC-SVG-20010904/DTD/svg10.dtd">
<svg version="1.0" xmlns="http://www.w3.org/2000/svg"
 width="350.000000pt" height="350.000000pt" viewBox="0 0 350.000000 350.000000"
 preserveAspectRatio="xMidYMid meet">

<g transform="translate(0.000000,350.000000) scale(0.100000,-0.100000)"
fill="#000000" stroke="none">
<path d="M1472 2993 c-7 -2 -19 -20 -26 -38 -8 -18 -23 -38 -34 -44 -16 -9
-19 -18 -14 -56 3 -28 -1 -61 -11 -88 -8 -23 -17 -68 -20 -100 -3 -32 -10 -64
-15 -70 -5 -7 -12 -41 -14 -78 -3 -36 -10 -74 -16 -85 -6 -10 -14 -36 -17 -57
-3 -21 -10 -35 -15 -32 -5 3 -16 -10 -24 -30 -8 -19 -18 -35 -23 -35 -4 0 -21
14 -39 31 -25 24 -45 33 -101 41 -91 14 -137 5 -165 -32 -21 -29 -23 -29 -46
-14 -24 16 -25 16 -17 -2 5 -11 11 -49 13 -86 l4 -68 -56 0 -55 0 -3 58 c-2
31 -7 56 -13 55 -6 -2 -11 -77 -13 -193 -2 -165 0 -190 13 -190 12 0 15 14 15
70 0 65 2 70 21 70 21 0 21 1 5 25 -10 14 -14 34 -11 45 11 35 117 55 129 24
11 -29 6 -61 -14 -87 -16 -20 -20 -40 -20 -95 0 -66 -2 -72 -30 -95 -54 -46
-163 -44 -206 4 -17 19 -19 38 -19 230 l0 209 28 27 c25 26 33 28 106 28 44 0
77 3 75 6 -2 3 -24 12 -49 19 -41 12 -48 11 -97 -13 -81 -40 -82 -45 -86 -251
-2 -99 -1 -200 3 -224 8 -53 46 -98 98 -116 53 -18 87 -10 146 35 28 21 56 39
61 39 5 0 17 -16 26 -35 21 -45 53 -54 97 -26 47 29 84 28 99 -4 6 -14 19 -25
30 -25 22 0 23 -25 3 -64 -8 -15 -15 -50 -15 -76 0 -46 -2 -49 -39 -68 -22
-12 -68 -24 -103 -27 -35 -3 -81 -10 -103 -15 -22 -5 -74 -14 -115 -20 -85
-13 -151 -30 -164 -41 -5 -5 8 -25 29 -46 66 -66 88 -100 82 -130 -6 -32 -31
-119 -42 -145 -9 -23 10 -23 108 -3 215 43 405 61 451 42 17 -7 18 -9 2 -25
-9 -10 -16 -31 -16 -46 0 -16 -6 -42 -14 -59 -8 -18 -17 -53 -21 -79 -3 -26
-10 -50 -16 -53 -5 -4 -9 -21 -9 -39 0 -18 -7 -41 -15 -52 -8 -10 -15 -34 -15
-52 0 -18 -6 -47 -14 -65 -7 -18 -16 -54 -20 -79 -4 -26 -11 -50 -17 -53 -5
-4 -9 -21 -9 -38 0 -18 -6 -41 -14 -52 -7 -11 -16 -36 -19 -55 -6 -42 -25
-114 -39 -155 -13 -36 -18 -195 -6 -195 4 0 20 19 34 43 15 23 77 94 138 157
61 63 129 139 151 168 21 28 42 52 46 52 4 0 47 46 95 103 49 56 103 116 120
133 17 17 62 67 99 110 37 43 89 99 114 124 25 25 86 92 135 149 l88 103 125
-6 c69 -3 129 -9 135 -12 5 -4 53 -10 106 -15 114 -9 276 -33 385 -56 42 -9
80 -14 82 -11 5 5 -9 65 -33 143 -12 41 -3 61 57 123 28 29 51 59 51 66 0 7
-26 17 -62 25 -139 28 -149 30 -400 68 -79 12 -118 22 -118 30 0 7 23 36 50
64 28 29 49 56 48 61 -2 6 -69 9 -163 9 -188 -2 -208 4 -181 56 18 35 85 95
101 90 5 -2 11 -13 13 -25 4 -25 19 -38 53 -47 20 -5 34 0 59 22 l34 28 -54 5
-55 5 -3 258 -2 257 110 0 110 0 0 -36 0 -36 -47 3 -48 3 -3 -67 c-3 -67 -3
-67 24 -67 21 0 25 3 18 18 -11 26 -8 64 8 73 18 12 55 11 63 -1 13 -21 8 -73
-8 -85 -10 -7 -17 -26 -17 -44 0 -30 -1 -31 -45 -31 l-45 0 1 -97 c1 -80 3
-89 8 -49 5 32 14 53 26 60 9 6 31 22 47 35 40 32 44 23 50 -110 6 -115 13
-133 55 -144 20 -5 32 0 55 22 l30 28 -59 5 -58 5 -3 258 -2 257 45 0 c48 0
61 16 21 26 -14 3 -39 -1 -59 -11 -32 -15 -38 -15 -59 -1 -13 9 -41 15 -61 14
-20 -1 -40 2 -44 6 -8 8 27 115 62 187 12 26 26 60 29 76 4 15 13 42 20 58 74
170 120 295 112 303 -9 8 -1114 14 -1134 5z m1073 -43 c7 -11 -32 -117 -121
-332 -24 -59 -44 -111 -44 -116 0 -10 -23 -62 -49 -112 -15 -27 -25 -35 -47
-35 -28 0 -29 2 -26 43 2 28 -1 41 -8 37 -5 -3 -10 -15 -10 -25 0 -32 -31 -40
-131 -34 -85 6 -98 4 -134 -16 -24 -13 -41 -18 -43 -11 -2 6 -26 13 -53 17
-27 4 -47 9 -45 13 8 13 -140 3 -167 -11 -24 -13 -37 -13 -110 0 -45 8 -101
15 -124 14 -24 -1 -43 2 -43 6 0 6 52 281 82 432 6 30 10 68 9 84 -1 58 -23
56 540 56 351 0 520 -3 524 -10z m-1036 -624 c15 -8 32 -26 39 -41 17 -37 16
-391 -1 -425 -33 -65 -172 -77 -229 -20 l-28 28 0 190 c0 108 5 202 11 220 6
18 23 36 42 46 40 20 129 21 166 2z m338 -10 c26 -22 28 -30 28 -93 l0 -68
-50 1 -50 0 -3 45 c-4 64 -9 74 -28 58 -30 -25 -8 -78 62 -150 70 -74 84 -100
84 -163 0 -58 -16 -101 -45 -120 -58 -38 -167 -27 -204 21 -17 21 -21 40 -21
100 l0 74 53 -3 52 -3 3 -68 c2 -58 6 -68 20 -65 11 2 18 15 20 37 5 48 -3 72
-36 106 -16 17 -48 52 -71 78 -38 45 -41 53 -41 106 0 95 38 129 142 130 46 1
62 -3 85 -23z m320 0 c24 -21 28 -32 31 -95 5 -79 7 -77 -70 -65 -38 7 -38 7
-38 55 0 52 -11 67 -30 44 -23 -28 -1 -77 70 -150 64 -66 68 -74 75 -129 9
-71 -6 -128 -39 -150 -59 -38 -168 -27 -205 21 -17 21 -21 40 -21 100 l0 74
53 -3 52 -3 3 -68 c2 -58 6 -68 20 -65 11 2 18 15 20 37 5 48 -3 72 -36 106
-16 17 -48 52 -71 78 -38 45 -41 53 -41 106 0 95 38 129 142 130 46 1 62 -4
85 -23z m-973 -15 c23 -21 26 -33 26 -89 0 -57 -3 -67 -28 -92 l-29 -28 29
-22 c28 -20 28 -22 28 -125 0 -59 4 -106 10 -110 6 -4 8 -11 5 -16 -9 -13
-112 -11 -121 2 -4 7 -7 57 -8 113 -1 101 -8 132 -28 120 -6 -4 -9 -51 -7
-123 l4 -116 -58 0 -58 0 -2 258 -2 259 107 -4 c96 -3 109 -5 132 -27z m1012
-196 c-4 -14 -11 -25 -16 -25 -13 0 -13 16 1 42 14 26 23 16 15 -17z m-247
-343 c25 -24 32 -26 65 -18 49 11 61 -1 40 -42 -8 -17 -13 -36 -9 -42 4 -6 69
-10 166 -10 145 0 159 -2 159 -17 -1 -25 -66 -93 -90 -93 -26 0 -35 17 -18 37
7 9 8 14 2 10 -7 -4 -209 -9 -450 -12 -322 -3 -458 -8 -509 -19 -38 -8 -74
-12 -78 -9 -15 9 23 206 43 227 5 5 22 -1 39 -14 49 -35 125 -37 185 -6 35 18
53 22 62 15 9 -7 19 -6 32 2 16 10 25 8 53 -12 47 -33 137 -33 192 1 32 19 40
21 47 9 7 -11 10 -10 16 4 9 24 21 21 53 -11z m-382 -304 c48 -45 18 -73 -32
-30 -54 48 -105 19 -105 -60 0 -60 48 -93 104 -72 27 10 19 42 -11 46 -14 2
-28 9 -31 16 -2 8 11 12 46 12 50 0 50 0 54 -36 2 -19 -1 -42 -7 -51 -16 -21
-106 -29 -145 -13 -55 23 -76 99 -45 160 20 39 41 49 99 50 38 0 55 -5 73 -22z
m132 -18 c12 -22 25 -40 29 -40 4 0 17 18 30 40 14 25 30 40 42 40 28 0 25
-14 -12 -68 -22 -32 -34 -63 -38 -97 -4 -42 -8 -50 -25 -50 -17 0 -20 8 -23
49 -2 35 -12 62 -37 99 -19 28 -32 54 -29 59 13 20 42 5 63 -32z m259 -32 l19
-63 18 63 c18 60 19 62 52 62 l33 0 0 -106 c0 -95 -2 -105 -17 -102 -14 2 -19
17 -23 68 l-5 65 -12 -40 c-6 -22 -13 -49 -15 -59 -2 -10 -11 -24 -21 -30 -24
-15 -40 6 -58 81 l-14 58 -3 -72 c-3 -65 -5 -73 -22 -73 -19 0 -20 7 -20 105
l0 105 34 0 c33 0 35 -2 54 -62z m2 -233 c0 -9 -11 -26 -24 -38 -13 -12 -88
-94 -167 -182 -79 -88 -152 -169 -162 -180 -10 -11 -132 -145 -270 -297 -145
-160 -255 -274 -260 -269 -9 9 40 112 55 119 5 2 5 15 2 28 -3 13 1 46 9 72 8
26 18 63 22 82 4 19 11 41 15 50 4 8 26 89 49 180 23 91 49 190 57 220 8 30
21 80 28 110 23 100 16 96 178 103 209 10 373 8 384 -3 7 -7 17 -5 30 5 25 19
54 19 54 0z"/>
<path d="M2434 2900 c-20 -8 -24 -32 -14 -80 0 -3 10 13 21 35 23 46 21 55 -7
45z"/>
<path d="M1531 2886 c2 -3 83 -6 179 -7 96 -1 181 -7 187 -12 8 -5 20 -6 30
-1 10 5 115 11 233 14 174 5 134 6 -209 8 -233 1 -422 0 -420 -2z"/>
<path d="M1860 2816 c0 -31 6 -34 13 -6 3 11 1 23 -4 26 -5 3 -9 -6 -9 -20z"/>
<path d="M1960 2816 c0 -22 23 -36 40 -25 13 8 12 12 -4 24 -25 19 -36 19 -36
1z"/>
<path d="M1732 2795 c-32 -22 -33 -23 -12 -30 12 -4 23 -5 24 -3 42 63 40 70
-12 33z"/>
<path d="M2390 2787 c0 -12 -6 -31 -13 -42 -19 -27 -27 -64 -16 -70 4 -3 11 7
14 22 4 15 13 40 21 55 16 30 18 58 4 58 -5 0 -10 -10 -10 -23z"/>
<path d="M1955 2710 c3 -5 10 -10 16 -10 5 0 9 5 9 10 0 6 -7 10 -16 10 -8 0
-12 -4 -9 -10z"/>
<path d="M2023 2713 c-19 -4 -23 -11 -23 -44 0 -47 11 -50 27 -9 7 19 24 36
45 45 l33 14 -30 -1 c-16 0 -40 -3 -52 -5z"/>
<path d="M1703 2682 c-11 -7 -6 -49 12 -109 7 -21 4 -23 -24 -23 -18 0 -30 -4
-27 -8 2 -4 23 -6 45 -4 42 4 56 24 25 36 -14 5 -16 16 -10 61 6 54 3 62 -21
47z"/>
<path d="M1816 2658 c-18 -35 -20 -58 -6 -58 11 0 40 53 40 75 0 25 -18 17
-34 -17z"/>
<path d="M2130 2659 c0 -11 5 -17 10 -14 6 3 10 13 10 21 0 8 -4 14 -10 14 -5
0 -10 -9 -10 -21z"/>
<path d="M2330 2624 c0 -14 4 -23 10 -19 6 3 10 15 10 26 0 10 -4 19 -10 19
-5 0 -10 -12 -10 -26z"/>
<path d="M2085 2610 c-10 -11 -14 -20 -9 -20 5 0 15 9 22 20 7 11 11 20 9 20
-2 0 -12 -9 -22 -20z"/>
<path d="M1911 2582 c-14 -27 -14 -32 3 -32 17 0 27 23 16 40 -6 10 -11 8 -19
-8z"/>
<path d="M2300 2554 c0 -14 4 -23 10 -19 6 3 10 15 10 26 0 10 -4 19 -10 19
-5 0 -10 -12 -10 -26z"/>
<path d="M2282 2508 c-14 -14 -17 -62 -3 -54 7 4 22 66 16 66 0 0 -6 -5 -13
-12z"/>
<path d="M1898 2463 c7 -3 16 -2 19 1 4 3 -2 6 -13 5 -11 0 -14 -3 -6 -6z"/>
<path d="M1665 2440 c-4 -6 5 -10 20 -10 15 0 24 4 20 10 -3 6 -12 10 -20 10
-8 0 -17 -4 -20 -10z"/>
<path d="M1416 2263 c-3 -3 -6 -91 -6 -195 0 -160 2 -188 15 -188 13 0 15 28
15 189 0 172 -5 213 -24 194z"/>
<path d="M1070 2195 c0 -49 3 -65 14 -65 17 0 26 22 26 65 0 43 -9 65 -26 65
-11 0 -14 -16 -14 -65z"/>
<path d="M1971 1704 c0 -11 3 -14 6 -6 3 7 2 16 -1 19 -3 4 -6 -2 -5 -13z"/>
<path d="M1948 1674 c-5 -4 -8 -16 -8 -28 0 -14 3 -17 11 -9 6 6 9 19 7 28 -1
9 -6 13 -10 9z"/>
<path d="M1818 1097 c-20 -24 -49 -55 -63 -71 -14 -15 -25 -29 -25 -31 0 -2
-27 -31 -60 -64 -33 -33 -60 -63 -60 -65 0 -3 -19 -25 -42 -49 -68 -71 -168
-179 -168 -182 0 -2 -34 -38 -76 -81 -82 -85 -160 -182 -152 -189 5 -5 11 1
133 139 39 44 84 94 100 111 29 30 139 152 187 207 34 38 148 164 186 204 17
19 32 37 32 40 0 3 14 17 30 31 29 24 39 43 23 43 -5 0 -25 -20 -45 -43z"/>
<path d="M2725 2351 l-60 -6 -3 -234 c-1 -150 1 -238 8 -245 7 -7 10 43 10
155 0 174 7 205 45 198 28 -6 33 -37 34 -225 1 -94 6 -185 12 -202 14 -40 41
-48 81 -25 50 29 46 42 -14 45 l-53 3 -5 225 -5 225 -25 0 c-21 0 -26 5 -28
33 l-3 32 115 0 c103 0 142 8 104 22 -19 7 -143 6 -213 -1z"/>
<path d="M2905 2262 c-3 -3 -4 -100 -3 -216 l2 -211 6 170 c6 161 15 215 39
230 6 3 11 10 11 14 0 10 -47 21 -55 13z"/>
</g>
</svg>
